<?xml version="1.0" encoding="utf-8"?>
<!DOCTYPE svg PUBLIC "-//W3C//DTD SVG 1.1//EN" "http://www.w3.org/Graphics/SVG/1.1/DTD/svg11.dtd">
<svg version="1.1" id="Layer_1" xmlns="http://www.w3.org/2000/svg" xmlns:xlink="http://www.w3.org/1999/xlink" x="0px" y="0px" width="72px" height="72px" viewBox="0 0 72 72" enable-background="new 0 0 72 72" xml:space="preserve">
	<rect width="72" height="72" fill="none"/>
	<g>
		<path fill="#FFFFFF" d="M34.055,14.242v2.039H23.719v9.477h-7.266v-9.477H6.07v-2.039H34.055z"/>
		<path fill="#FFFFFF" d="M58.488,14.242h7.5L54.21,25.758h-6.819L35.707,14.242h7.711l7.5,8.742L58.488,14.242z"/>
		<path fill="#FFFFFF" d="M30.61491,30.73709C32.09444,29.78436 33.91292,29.30758 36.06983,29.30758C38.90438,29.30758 41.25891,29.98469 43.13339,31.33918C45.00842,32.69339 45.9462,34.70026 45.9462,37.35894C45.9462,38.98933 45.53956,40.36257 44.72681,41.47868C44.25112,42.15606 43.33862,43.02127 41.98739,44.07458L40.65601,45.1094C39.93024,45.67371 39.44884,46.33206 39.21155,47.08473C39.06123,47.56151 38.97941,48.3014 38.96745,49.30443L33.86943,49.30443C33.94418,47.18531 34.14451,45.72073 34.46934,44.91206C34.79417,44.10312 35.63193,43.17185 36.9826,42.11854L38.35178,41.04648C38.80191,40.70779 39.16452,40.33811 39.43961,39.93663C39.93976,39.24702 40.18983,38.48809 40.18983,37.6604C40.18983,36.70739 39.91176,35.83891 39.3548,35.05498C38.79838,34.27132 37.78176,33.87935 36.30523,33.87935C34.8537,33.87935 33.82431,34.36211 33.21815,35.32789C32.61117,36.29286 32.30809,37.29615 32.30809,38.33696L26.87165,38.33696C27.02197,34.76277 28.26963,32.22967 30.61491,30.73709zM33.73787,51.88103L39.36214,51.88103L39.36214,57.31747L33.73787,57.31747L33.73787,51.88103z"></path>
	</g>
</svg>